Coordinates
version=1
nRows=26
nColumns=27
inDegrees=yes

Units are S.I. units (second, meters, Newtons, ...)
If the header above contains a line with 'inDegrees', this indicates whether rotational values are in degrees (yes) or radians (no).

endheader
time	pelvis_rotation	pelvis_tilt	pelvis_list	pelvis_tx	pelvis_ty	pelvis_tz	hip_flexion_r	hip_adduction_r	hip_rotation_r	knee_angle_r	knee_rotation_r	knee_adduction_r	knee_angle_r_beta	ankle_angle_r	subtalar_angle_r	mtp_angle_r	hip_flexion_l	hip_adduction_l	hip_rotation_l	knee_angle_l	knee_rotation_l	knee_adduction_l	knee_angle_l_beta	ankle_angle_l	subtalar_angle_l	mtp_angle_l
      3.60000000	      2.08112818	    -15.39941131	     -4.66988380	      0.06895188	      0.82650456	     -1.14232974	     27.59591861	    -21.07205192	    -27.73617324	     24.03939001	      0.00000000	      0.00000000	      0.41956651	     -0.15805207	      0.00000000	      0.00000000	     35.60394182	    -27.83362885	     -6.75360716	     24.98815527	      0.00000000	      0.00000000	      0.43612558	      0.20387953	      0.00000000	      0.00000000
      3.60500000	      2.17599461	    -15.75637881	     -4.75118981	      0.06775775	      0.82620848	     -1.14227224	     28.15328182	    -21.12194580	    -27.73066769	     24.37086409	      0.00000000	      0.00000000	      0.42535182	     -0.17332766	      0.00000000	      0.00000000	     36.34605117	    -27.85578984	     -6.35130205	     25.29739581	      0.00000000	      0.00000000	      0.44152285	      0.22080800	      0.00000000	      0.00000000
      3.61000000	      1.79427279	    -16.29518744	     -4.05686417	      0.06602853	      0.82569047	     -1.14277034	     29.67898485	    -21.95177676	    -26.67261763	     25.38701561	      0.00000000	      0.00000000	      0.44308701	      0.15496724	      0.00000000	      0.00000000	     36.65871114	    -27.33960383	     -7.04221006	     25.35507993	      0.00000000	      0.00000000	      0.44252963	      0.10938570	      0.00000000	      0.00000000
      3.61500000	      1.86570228	    -16.51937328	     -4.27110549	      0.06506293	      0.82550720	     -1.14255819	     29.99518295	    -21.81843395	    -26.75343515	     25.54191142	      0.00000000	      0.00000000	      0.44579045	     -0.00013996	      0.00000000	      0.00000000	     37.23027430	    -27.50523203	     -6.65178310	     25.57716368	      0.00000000	      0.00000000	      0.44640572	      0.07593974	      0.00000000	      0.00000000
      3.62000000	      1.75163913	    -16.95767566	     -4.07637750	      0.06357875	      0.82509378	     -1.14269228	     30.96597035	    -22.13553997	    -26.31665221	     26.14007686	      0.00000000	      0.00000000	      0.45623041	      0.07988217	      0.00000000	      0.00000000	     37.82812020	    -27.36023489	     -6.69826703	     25.79989534	      0.00000000	      0.00000000	      0.45029312	      0.01899775	      0.00000000	      0.00000000
      3.62500000	      1.61561030	    -17.39638930	     -3.87726873	      0.06202600	      0.82466668	     -1.14282157	     31.96617015	    -22.43947520	    -25.81490904	     26.73901936	      0.00000000	      0.00000000	      0.46668393	      0.14564020	      0.00000000	      0.00000000	     38.40696285	    -27.22176153	     -6.76703579	     26.00517163	      0.00000000	      0.00000000	      0.45387587	     -0.04568169	      0.00000000	      0.00000000
      3.63000000	      1.52718663	    -17.86304421	     -3.61806065	      0.06041201	      0.82417688	     -1.14301613	     33.01377250	    -22.82827859	    -25.34572185	     27.38589279	      0.00000000	      0.00000000	      0.47797400	      0.21326708	      0.00000000	      0.00000000	     39.03431866	    -27.01765488	     -6.83215273	     26.23418918	      0.00000000	      0.00000000	      0.45787298	     -0.10453677	      0.00000000	      0.00000000
      3.63500000	      1.21600697	    -18.30928744	     -3.35945799	      0.05875745	      0.82368297	     -1.14311097	     34.20156855	    -23.12495157	    -24.55091328	     28.06689839	      0.00000000	      0.00000000	      0.48985979	      0.30397774	      0.00000000	      0.00000000	     39.49845203	    -26.91902206	     -7.17752730	     26.41069803	      0.00000000	      0.00000000	      0.46095364	     -0.20737760	      0.00000000	      0.00000000
      3.64000000	      1.21834910	    -18.83704188	     -3.15265446	      0.05695916	      0.82311548	     -1.14331414	     35.25764246	    -23.47116701	    -24.15548352	     28.67377514	      0.00000000	      0.00000000	      0.50045179	      0.37248979	      0.00000000	      0.00000000	     40.29448385	    -26.72043726	     -7.04743186	     26.68856194	      0.00000000	      0.00000000	      0.46580328	     -0.22906878	      0.00000000	      0.00000000
      3.64500000	      1.11576106	    -19.35081870	     -2.91716283	      0.05516932	      0.82252105	     -1.14346437	     36.39846856	    -23.80979510	    -23.61020890	     29.33635736	      0.00000000	      0.00000000	      0.51201603	      0.42710055	      0.00000000	      0.00000000	     41.02002350	    -26.56130948	     -7.09868873	     26.97909501	      0.00000000	      0.00000000	      0.47087404	     -0.30156504	      0.00000000	      0.00000000
      3.65000000	      0.97617402	    -19.85644851	     -2.67194855	      0.05330971	      0.82190687	     -1.14360197	     37.57457789	    -24.13177417	    -22.99369886	     29.99695439	      0.00000000	      0.00000000	      0.52354562	      0.45714570	      0.00000000	      0.00000000	     41.69493706	    -26.40983260	     -7.19652048	     27.23515300	      0.00000000	      0.00000000	      0.47534309	     -0.34900776	      0.00000000	      0.00000000
      3.65500000	      0.89577857	    -20.38466342	     -2.39433473	      0.05142926	      0.82122377	     -1.14375926	     38.76572748	    -24.49850194	    -22.40844923	     30.68006794	      0.00000000	      0.00000000	      0.53546820	      0.54281658	      0.00000000	      0.00000000	     42.41934275	    -26.21184000	     -7.24544815	     27.50383338	      0.00000000	      0.00000000	      0.48003245	     -0.40210471	      0.00000000	      0.00000000
      3.66000000	      0.66981675	    -20.93794365	     -1.87733355	      0.04942952	      0.82048555	     -1.14405726	     40.24650346	    -25.03658547	    -21.45434042	     31.51410140	      0.00000000	      0.00000000	      0.55002483	      0.66571249	      0.00000000	      0.00000000	     42.97096201	    -25.89433192	     -7.70292301	     27.69207671	      0.00000000	      0.00000000	      0.48331792	     -0.55186630	      0.00000000	      0.00000000
      3.66500000	      0.62731951	    -21.40532614	     -1.89414886	      0.04760115	      0.81979601	     -1.14396509	     41.17881478	    -25.10393448	    -21.11376787	     32.00926848	      0.00000000	      0.00000000	      0.55866713	      0.60920236	      0.00000000	      0.00000000	     43.82556042	    -25.94685243	     -7.47657546	     28.07636649	      0.00000000	      0.00000000	      0.49002504	     -0.53572929	      0.00000000	      0.00000000
      3.67000000	      0.63589374	    -21.92440624	     -1.61465582	      0.04563506	      0.81903363	     -1.14408309	     42.33319287	    -25.47685689	    -20.61548873	     32.67400643	      0.00000000	      0.00000000	      0.57026899	      0.65358281	      0.00000000	      0.00000000	     44.62972093	    -25.74268555	     -7.46412441	     28.39119095	      0.00000000	      0.00000000	      0.49551976	     -0.72902954	      0.00000000	      0.00000000
      3.67500000	      0.52985794	    -22.43593780	     -1.27271373	      0.04366849	      0.81813866	     -1.14421944	     43.62016087	    -25.85603843	    -19.89227797	     33.40513261	      0.00000000	      0.00000000	      0.58302955	      0.70063009	      0.00000000	      0.00000000	     45.30428483	    -25.53363532	     -7.59409242	     28.67983888	      0.00000000	      0.00000000	      0.50055762	     -0.69088046	      0.00000000	      0.00000000
      3.68000000	      0.62621103	    -22.90612006	     -1.13979532	      0.04179462	      0.81729865	     -1.14420729	     44.58499653	    -26.11635637	    -19.60773057	     33.98038800	      0.00000000	      0.00000000	      0.59306965	      0.70806504	      0.00000000	      0.00000000	     46.17724160	    -25.41934376	     -7.34046308	     29.05754047	      0.00000000	      0.00000000	      0.50714975	     -0.74886848	      0.00000000	      0.00000000
      3.68500000	      0.54797078	    -23.39857832	     -0.93102830	      0.03988364	      0.81639930	     -1.14417565	     45.74744472	    -26.35373231	    -19.01276524	     34.61634548	      0.00000000	      0.00000000	      0.60416920	      0.76874221	      0.00000000	      0.00000000	     46.92134562	    -25.33882113	     -7.40215919	     29.36903888	      0.00000000	      0.00000000	      0.51258643	     -0.83742517	      0.00000000	      0.00000000
      3.69000000	      0.56547050	    -23.83642388	     -0.67904969	      0.03800841	      0.81541762	     -1.14422843	     46.82656217	    -26.67208522	    -18.49935434	     35.26085741	      0.00000000	      0.00000000	      0.61541806	      0.77589283	      0.00000000	      0.00000000	     47.67797881	    -25.18055731	     -7.34167264	     29.75836586	      0.00000000	      0.00000000	      0.51938146	     -0.88868464	      0.00000000	      0.00000000
      3.69500000	      0.59107919	    -24.27706505	     -0.49900536	      0.03614380	      0.81437450	     -1.14416708	     47.87643576	    -26.92971917	    -18.05326283	     35.90346103	      0.00000000	      0.00000000	      0.62663361	      0.79703372	      0.00000000	      0.00000000	     48.48245047	    -25.08875307	     -7.23007667	     30.16649608	      0.00000000	      0.00000000	      0.52650468	     -0.94025001	      0.00000000	      0.00000000
      3.70000000	      0.86344873	    -24.62412456	     -0.49110508	      0.03442366	      0.81340880	     -1.14408127	     48.50217675	    -27.15007929	    -18.10247468	     36.35906299	      0.00000000	      0.00000000	      0.63458536	      0.78354841	      0.00000000	      0.00000000	     49.38672834	    -24.98449109	     -6.63873593	     30.59014208	      0.00000000	      0.00000000	      0.53389870	     -0.94183220	      0.00000000	      0.00000000
      3.70500000	      0.78099753	    -25.07533325	     -0.16684126	      0.03255523	      0.81223894	     -1.14408918	     49.74762865	    -27.46320599	    -17.36464509	     37.07706221	      0.00000000	      0.00000000	      0.64711681	      0.82071202	      0.00000000	      0.00000000	     50.06495817	    -24.84957073	     -6.80235785	     30.95446889	      0.00000000	      0.00000000	      0.54025740	     -1.00938153	      0.00000000	      0.00000000
      3.71000000	      0.88502428	    -25.45012918	      0.03260810	      0.03077690	      0.81105210	     -1.14406175	     50.69643595	    -27.75996929	    -16.97921157	     37.70181192	      0.00000000	      0.00000000	      0.65802075	      0.86518441	      0.00000000	      0.00000000	     50.84092296	    -24.71308040	     -6.61382556	     31.37621843	      0.00000000	      0.00000000	      0.54761832	     -1.07148590	      0.00000000	      0.00000000
      3.71500000	      0.97419996	    -25.80429264	      0.17468964	      0.02901930	      0.80979505	     -1.14398552	     51.61016391	    -28.00220045	    -16.62242556	     38.31825785	      0.00000000	      0.00000000	      0.66877976	      0.87292292	      0.00000000	      0.00000000	     51.62366396	    -24.63017286	     -6.38353298	     31.82228081	      0.00000000	      0.00000000	      0.55540358	     -1.10167709	      0.00000000	      0.00000000
      3.72000000	      1.06096730	    -26.17349746	      0.39311048	      0.02724891	      0.80847414	     -1.14393569	     52.61369098	    -28.30169156	    -16.17236674	     38.99298283	      0.00000000	      0.00000000	      0.68055594	      0.91501897	      0.00000000	      0.00000000	     52.37780898	    -24.49257928	     -6.21459369	     32.24584535	      0.00000000	      0.00000000	      0.56279617	     -1.14114003	      0.00000000	      0.00000000
      3.72500000	      1.08666062	    -26.49146505	      0.58409629	      0.02556470	      0.80709093	     -1.14391175	     53.57063037	    -28.54430628	    -15.68320554	     39.62952216	      0.00000000	      0.00000000	      0.69166564	      0.94173671	      0.00000000	      0.00000000	     53.07898187	    -24.42583191	     -6.13547101	     32.71302780	      0.00000000	      0.00000000	      0.57095004	     -1.16767386	      0.00000000	      0.00000000
